<svg xmlns="http://www.w3.org/2000/svg" width="64" height="64" viewBox="0 0 64 64" role="img" aria-label="Kolorowe Rączki">
  <defs>
    <linearGradient id="ring" x1="0" x2="1" y1="0" y2="1">
      <stop offset="0" stop-color="#7db238"/>
      <stop offset="1" stop-color="#f0c24b"/>
    </linearGradient>
  </defs>

  <circle cx="32" cy="32" r="30" fill="#fff"/>
  <circle cx="32" cy="32" r="28" fill="none" stroke="url(#ring)" stroke-width="4"/>

  <g transform="translate(32 32)">
    <path d="M-21 2c-3 0-5-2.2-5-4.7 0-2.3 1.8-4.7 4.7-5.2 2.8-.5 5.2.4 6.8 2.5l8.5 10.6c.8 1.1.8 2.4.2 3.3-.9 1.3-2.4 1.5-3.9.7l-10.6-4.7c-.2 0-.4.1-.7.1z" fill="#e24a4a"/>
    <path d="M-2 -22c0-3 2.2-5 4.7-5 2.3 0 4.7 1.8 5.2 4.7.5 2.8-.4 5.2-2.5 6.8l-10.6 8.5c-1.1.8-2.4.8-3.3.2-1.3-.9-1.5-2.4-.7-3.9l4.7-10.6c0-.2-.1-.4-.1-.7z" fill="#7db238"/>
    <path d="M21 2c3 0 5-2.2 5-4.7 0-2.3-1.8-4.7-4.7-5.2-2.8-.5-5.2.4-6.8 2.5l-8.5 10.6c-.8 1.1-.8 2.4-.2 3.3.9 1.3 2.4 1.5 3.9.7l10.6-4.7c.2 0 .4.1.7.1z" fill="#f0c24b"/>
    <path d="M0 22c0 3-2.2 5-4.7 5-2.3 0-4.7-1.8-5.2-4.7-.5-2.8.4-5.2 2.5-6.8l10.6-8.5c1.1-.8 2.4-.8 3.3-.2 1.3.9 1.5 2.4.7 3.9l-4.7 10.6c0 .2.1.4.1.7z" fill="#2f66ff"/>
    <circle cx="0" cy="0" r="6.5" fill="#fff" stroke="#1f2a37" stroke-opacity="0.12"/>
  </g>
</svg>

